/* XPM */
static char * barrow_xpm[] = {
"16 42 2 1",
" 	c #75753D3D3838",
".	c #000000000000",
"                ",
"                ",
"                ",
"                ",
"         .      ",
"         .      ",
"        ..      ",
"        ..      ",
"       ...      ",
"       ...      ",
"      ....      ",
"      ....      ",
"     .....      ",
"     .....      ",
"    ......      ",
"    ......      ",
"   .......    . ",
"   .......    . ",
"  ........  ... ",
"  ............. ",
" .............. ",
" .............. ",
"  ............. ",
"  ........  ... ",
"   .......    . ",
"   .......    . ",
"    ......      ",
"    ......      ",
"     .....      ",
"     .....      ",
"      ....      ",
"      ....      ",
"       ...      ",
"       ...      ",
"        ..      ",
"        ..      ",
"         .      ",
"         .      ",
"                ",
"                ",
"                ",
"                "};
