/* XPM */
static char * bempty_xpm[] = {
"32 42 4 1",
" 	c #75753D3D3838",
".	c #A8A858585050",
"X	c #474725252222",
"o	c #000000000000",
"                                ",
"                                ",
"                                ",
"                                ",
"                                ",
"                                ",
"                                ",
"                                ",
"                                ",
"                                ",
"                                ",
"                                ",
"               ...              ",
"             .    ...           ",
"              XXXX  ..          ",
"                 XXX ..         ",
"                   XX ..        ",
"                X   XX .        ",
"        X      ooXX  X .        ",
"         .    ooooX  XX .       ",
"       X .   ooooooX  X .       ",
"       X .  .oooooo   X .       ",
"       X ..  .oooo    X         ",
"        X .  ..oo      .        ",
"        X ..   .                ",
"        XX ..                   ",
"         XX ...                 ",
"          XX  ....              ",
"           XXX    X             ",
"              XXX               ",
"                                ",
"                                ",
"                                ",
"                                ",
"                                ",
"                                ",
"                                ",
"                                ",
"                                ",
"                                ",
"                                ",
"                                "};
