/* XPM */
static char * bhidden_xpm[] = {
"32 42 3 1",
" 	c #75753D3D3838",
".	c #A8A858585050",
"X	c #474725252222",
"                                ",
"                                ",
"                                ",
"................................",
"                                ",
"XXXXXXXXXXXXXXXXXXXXXXXXXXXXXXXX",
". . . . . . . . . . . . . . . . ",
" . . . . . . . . . . . . . . . .",
". . . . . . . . . . . . . . . . ",
" . . . . . . . . . . . . . . . .",
". . . . . . . . . . . . . . . . ",
" . . . . . . . . . . . . . . . .",
". . . . . . . . . . . . . . . . ",
" . . . . . . . . . . . . . . . .",
". . . . . . . . . . . . . . . . ",
" . . . . . . . . . . . . . . . .",
". . . . . . . . . . . . . . . . ",
" . . . . . . . . . . . . . . . .",
". . . . . . . . . . . . . . . . ",
" . . . . . . . . . . . . . . . .",
". . . . . . . . . . . . . . . . ",
" . . . . . . . . . . . . . . . .",
". . . . . . . . . . . . . . . . ",
" . . . . . . . . . . . . . . . .",
". . . . . . . . . . . . . . . . ",
" . . . . . . . . . . . . . . . .",
"                                ",
"                                ",
"                                ",
"                                ",
"X X X X X X X X X X X X X X X X ",
" X X X X X X X X X X X X X X X X",
"X X X X X X X X X X X X X X X X ",
" X X X X X X X X X X X X X X X X",
"X X X X X X X X X X X X X X X X ",
" X X X X X X X X X X X X X X X X",
"X X X X X X X X X X X X X X X X ",
" X X X X X X X X X X X X X X X X",
"XXXXXXXXXXXXXXXXXXXXXXXXXXXXXXXX",
"                                ",
"                                ",
"                                "};
