/* XPM */
static char * bwhite_xpm[] = {
"32 42 6 1",
" 	c #75753D3D3838",
".	c #F5F5F5F5F5F5",
"X	c #EBEBEBEBEBEB",
"o	c #FFFFFFFFFFFF",
"O	c #D7D7D7D7D7D7",
"+	c #474725252222",
"                                ",
"                                ",
"                                ",
"                                ",
"                                ",
"                                ",
"                                ",
"                                ",
"                                ",
"             ......             ",
"          .X.X.X......          ",
"         XXXXXXXX.X....         ",
"        XXXX.X.X.X.X....        ",
"       XXXXXXXXXXXX......       ",
"      XXXXXXXX.X.X..oo....      ",
"     OXXXXXXXXXXXXX.ooo....     ",
"    +XXXXXXXXXXXXX...oo....     ",
"    +OXOXXXXXXXXXXXX....X..     ",
"   +OXXXXXXXXXXXXXXX.X.X.X..    ",
"  ++OOXOXOXXXXXXXXXXXXXXX...    ",
"  ++OXXXXXXXXXXXXXXXXX.X.X..    ",
" +++OOXOXOXXXXXXXXXXXXXXXXX.    ",
"  ++OOOXXXXXXXXXXXXXXX.X.X..    ",
" +++OOXOXOXOXXXXXXXXXXXXXXX.    ",
"  +++OOXOXXXXXXXXXXXXXXX.X.     ",
" ++++OOOXOXOXOXXXXXXXXXXXXX     ",
"  +++OOOOXOXXXXXXXXXXXXXXX.     ",
" +++++OOOOXOXOXOXOXXXXXXXX      ",
"  +++++OOOOXOXXXXXXXXXXXX       ",
" + +++++OOOOXOXOXOXOXXXX        ",
"  +++++++OOOOXOXXXXXXXX         ",
" + +++++++OOOOOOXOXOXO          ",
"  + +++++++++OOOOOO++           ",
"   + ++++++++++++++             ",
"    + + ++++++++++              ",
"     + + + + + +                ",
"                                ",
"                                ",
"                                ",
"                                ",
"                                ",
"                                "};
