/* XPM */
static char * mm_xpm[] = {
"48 42 3 1",
" 	c #75753D3D3838",
".	c #A8A858585050",
"X	c #474725252222",
"                                                ",
"                                                ",
"   ...........................................  ",
"  X                                          .  ",
"  X  XXXXXXXXXXXXXXXXXXXXXXXXXXXXXXXXXXXXXXX .  ",
"  X .                                      X .  ",
"  X .                                      X .  ",
"  X .    ...        ...                    X .  ",
"  X .   X   ..     .  .                    X .  ",
"  X .   X     .. .    .                    X .  ",
"  X .   X .X    .   X .                    X .  ",
"  X .   X . XX     XX .                    X .  ",
"  X .   X .   XX X  X .                    X .  ",
"  X .   X .         X .                    X .  ",
"  X .   X .         X .                    X .  ",
"  X .   X .         X .                    X .  ",
"  X .   X .         X .   ...        ...   X .  ",
"  X .   X .         X .  X   ..     .  .   X .  ",
"  X .   X .         X .  X     .. .    .   X .  ",
"  X .   X .         X .  X .X    .   X .   X .  ",
"  X .   X .         X .  X . XX     XX .   X .  ",
"  X .   X .         X .  X .   XX X  X .   X .  ",
"  X .   X .         X .  X .         X .   X .  ",
"  X .   X .         X .  X .         X .   X .  ",
"  X .   X           X    X .         X .   X .  ",
"  X .                    X .         X .   X .  ",
"  X .                    X .         X .   X .  ",
"  X .                    X .         X .   X .  ",
"  X .                    X .         X .   X .  ",
"  X .                    X .         X .   X .  ",
"  X .                    X .         X .   X .  ",
"  X .                    X .         X .   X .  ",
"  X .                    X .         X .   X .  ",
"  X .                    X           X     X .  ",
"  X .                                      X .  ",
"  X .                                      X .  ",
"  X .                                      X .  ",
"  X .......................................  .  ",
"  X                                          .  ",
"  XXXXXXXXXXXXXXXXXXXXXXXXXXXXXXXXXXXXXXXXXXX   ",
"                                                ",
"                                                "};
