/* XPM */
static char * swhite_xpm[] = {
"16 16 5 1",
" 	c #75753D3D3838",
".	c #F5F5F5F5F5F5",
"X	c #EBEBEBEBEBEB",
"o	c #FFFFFFFFFFFF",
"O	c #474725252222",
"                ",
"                ",
"                ",
"      ....      ",
"    ........    ",
"    ..XXX...    ",
"   ..o.XXX...   ",
"  O..oo.XXX..   ",
" O ..ooo.XX..   ",
"O O...ooo.X..   ",
" O O...ooo..    ",
"O OO........    ",
" O OOO....      ",
"  O O O O       ",
" O O O O        ",
"    O O         "};
